<?xml version="1.0" encoding="UTF-8" standalone="no"?>
<!-- Created with Inkscape (http://www.inkscape.org/) -->

<svg
   xmlns:dc="http://purl.org/dc/elements/1.1/"
   xmlns:cc="http://creativecommons.org/ns#"
   xmlns:rdf="http://www.w3.org/1999/02/22-rdf-syntax-ns#"
   xmlns:svg="http://www.w3.org/2000/svg"
   xmlns="http://www.w3.org/2000/svg"
   xmlns:sodipodi="http://sodipodi.sourceforge.net/DTD/sodipodi-0.dtd"
   xmlns:inkscape="http://www.inkscape.org/namespaces/inkscape"
   width="64px"
   height="64px"
   id="svg2985"
   version="1.1"
   inkscape:version="0.48.3.1 r9886"
   sodipodi:docname="ic_bookmark_unprecise.svg">
  <defs
     id="defs2987" />
  <sodipodi:namedview
     id="base"
     pagecolor="#ffffff"
     bordercolor="#666666"
     borderopacity="1.0"
     inkscape:pageopacity="0.0"
     inkscape:pageshadow="2"
     inkscape:zoom="13.375"
     inkscape:cx="32"
     inkscape:cy="32"
     inkscape:current-layer="layer1"
     showgrid="true"
     inkscape:document-units="px"
     inkscape:grid-bbox="true"
     inkscape:window-width="1871"
     inkscape:window-height="1058"
     inkscape:window-x="49"
     inkscape:window-y="0"
     inkscape:window-maximized="1" />
  <metadata
     id="metadata2990">
    <rdf:RDF>
      <cc:Work
         rdf:about="">
        <dc:format>image/svg+xml</dc:format>
        <dc:type
           rdf:resource="http://purl.org/dc/dcmitype/StillImage" />
        <dc:title />
      </cc:Work>
    </rdf:RDF>
  </metadata>
  <g
     id="layer1"
     inkscape:label="Layer 1"
     inkscape:groupmode="layer">
    <path
       sodipodi:nodetypes="ccccc"
       inkscape:connector-curvature="0"
       id="path3755"
       d="m 15.364487,48.747665 41.271026,0 -8,13.757011 -41.271026,0 z"
       style="fill:#669900;stroke:#000000;stroke-width:2;stroke-linejoin:miter;stroke-miterlimit:4;stroke-opacity:1;stroke-dasharray:none" />
    <rect
       transform="matrix(0.00732819,0.99997315,-0.99999568,0.0029407,0,0)"
       y="-46.768425"
       x="56.709736"
       height="31.395164"
       width="2.4673293"
       id="rect3758"
       style="fill:#ffbb33;fill-opacity:1;stroke:none" />
    <path
       style="fill:#ffbb33;fill-opacity:1;stroke:none"
       d="m 19.833319,49.721963 -7.126835,11.806074 2.729425,0 7.096509,-11.806074 -2.699099,0 z"
       id="rect2985"
       inkscape:connector-curvature="0" />
    <path
       style="fill:#cc0000;fill-opacity:1;stroke:#000000;stroke-width:1.94662130000000011;stroke-linejoin:miter;stroke-miterlimit:4;stroke-opacity:1;stroke-dasharray:none"
       d="M 30.266838,2.0069585 C 19.331709,2.5612615 10.648545,11.616928 10.648545,22.68981 c 0,11.430071 19.367935,32.36258 20.682851,32.36258 1.242148,0 20.682852,-20.932509 20.682852,-32.36258 0,-11.430071 -9.25278,-20.6828515 -20.682852,-20.6828515 -0.357189,0 -0.711812,-0.017881 -1.064558,0 z m 1.064558,12.0751355 c 4.753204,0 8.607717,3.854513 8.607717,8.607716 0,4.753204 -3.854513,8.607717 -8.607717,8.607717 -4.753203,0 -8.607716,-3.854513 -8.607716,-8.607717 0,-4.753203 3.854513,-8.607716 8.607716,-8.607716 z"
       id="path3814"
       inkscape:connector-curvature="0" />
  </g>
</svg>
